# xmcd
#
# Track frame offsets: 
#        150
#        17409
#        39824
#        68328
#
# Disc length: 1981 seconds
#
# Revision: 4
# Processed by: cddbd v1.5.2PL0 Copyright (c) Steve Scherf et al.
# Submitted via: ExactAudioCopyFreeDBPlugin 1.0
#
DISCID=1c07bb04
DTITLE=Truth Hurts - Addictive (Single)
DYEAR=2002
DGENRE=R&B
TTITLE0=Addictive Feat. Rakim (Album Version)
TTITLE1=Addictive Feat. Rakim (Remix)
TTITLE2=Addictive Feat. Rakim (Instrumental)
TTITLE3=Truth Hurts feat. Rakim - data
EXTD=\n YEAR: 2002
EXTT0=
EXTT1=
EXTT2=
EXTT3=
PLAYORDER=
